<svg xmlns="http://www.w3.org/2000/svg" width="155" height="34" viewBox="0 0 155 34" xmlns:xlink="http://www.w3.org/1999/xlink">
  <defs>
    <path id="a" d="M0 .065h154.82V34H0"/>
    <path id="c" d="M0 .065h154.82V34H0"/>
    <path id="e" d="M0 .065h154.82V34H0"/>
    <path id="g" d="M0 .065h154.82V34H0V.065z"/>
  </defs>
  <g fill="none" fill-rule="evenodd">
    <g>
      <mask id="b" fill="#fff">
        <use xlink:href="#a"/>
      </mask>
      <path fill="#FEFEFE" d="M12.897 3.91c.005-2.13 1.707-3.852 3.8-3.845 2.096.005 3.79 1.737 3.785 3.866-.003 1.716-1.11 3.166-2.632 3.663v9.376c0 .033-.053.063-.116.063h-2.09c-.064 0-.115-.03-.115-.064V7.592C14 7.093 12.89 5.63 12.896 3.91" mask="url(#b)"/>
    </g>
    <path fill="#FEFEFE" d="M4.88 10.48c-1.476-1.51-1.47-3.952.014-5.45C6.38 3.525 8.78 3.53 10.26 5.04c1.19 1.215 1.417 3.034.684 4.482l6.523 6.63c.023.024.006.082-.04.128l-1.477 1.5c-.044.046-.1.066-.124.04l-6.523-6.63c-1.43.747-3.227.51-4.423-.713"/>
    <g>
      <mask id="d" fill="#fff">
        <use xlink:href="#c"/>
      </mask>
      <path fill="#FEFEFE" d="M3.782 20.89C1.69 20.882-.008 19.15 0 17.023c.005-2.13 1.708-3.853 3.803-3.847 1.686.003 3.114 1.128 3.602 2.676h9.223c.033 0 .06.053.06.117v2.125c0 .065-.027.117-.06.117H7.405c-.492 1.557-1.93 2.68-3.623 2.677" mask="url(#d)"/>
    </g>
    <path fill="#FEFEFE" d="M10.246 29.04c-1.485 1.5-3.888 1.494-5.364-.015-1.478-1.51-1.472-3.953.014-5.455 1.194-1.21 2.985-1.44 4.408-.696l6.522-6.632c.024-.023.08-.005.125.04l1.478 1.5c.045.048.062.105.04.128l-6.524 6.632c.735 1.453.5 3.282-.698 4.497"/>
    <g>
      <mask id="f" fill="#fff">
        <use xlink:href="#e"/>
      </mask>
      <path fill="#FEFEFE" d="M20.483 30.154c-.006 2.13-1.71 3.853-3.802 3.846-2.094-.006-3.788-1.736-3.783-3.867.003-1.712 1.11-3.164 2.633-3.66v-9.378c0-.035.052-.062.116-.062h2.088c.064 0 .116.027.116.062v9.377c1.53.5 2.637 1.96 2.633 3.682" mask="url(#f)"/>
    </g>
    <path fill="#FEFEFE" d="M28.498 23.584c1.477 1.51 1.47 3.953-.013 5.452-1.484 1.502-3.887 1.496-5.365-.013-1.19-1.215-1.418-3.035-.685-4.483l-6.522-6.63c-.024-.025-.006-.082.038-.127l1.478-1.5c.046-.047.102-.065.126-.04l6.52 6.63c1.432-.747 3.23-.51 4.424.71"/>
    <path fill="#FEFEFE" d="M29.597 13.176c2.093.006 3.79 1.738 3.782 3.865-.006 2.13-1.71 3.853-3.804 3.85-1.686-.006-3.112-1.13-3.602-2.68H16.75c-.032 0-.06-.05-.06-.117V15.97c0-.064.028-.118.06-.118h9.224c.492-1.555 1.93-2.68 3.623-2.676"/>
    <path fill="#FEFEFE" d="M23.134 5.028c1.484-1.504 3.887-1.496 5.364.012 1.476 1.51 1.47 3.95-.015 5.454-1.194 1.21-2.985 1.442-4.408.697l-6.522 6.633c-.023.023-.08.005-.125-.04l-1.477-1.5c-.044-.048-.06-.105-.038-.128l6.523-6.632c-.735-1.454-.502-3.282.7-4.495"/>
    <path fill="#FEFEFE" d="M12.81 17.024c.004-2.3 1.843-4.16 4.104-4.153 2.262.007 4.09 1.875 4.086 4.176-.005 2.3-1.844 4.158-4.106 4.153-2.262-.008-4.09-1.876-4.085-4.176M73.816 22.72v-1.667H75.1V13.33h-2.457V14.4h-1.846v-2.933h11.057v2.933h-1.838V13.33h-2.5v7.723h1.282v1.666h-4.982zM120.957 22.72v-1.667h1.055v-7.745h-1.055v-1.843h8.587v2.908h-1.83v-1.065h-3.288v7.745h1.043v1.666h-4.513z"/>
    <g>
      <mask id="h" fill="#fff">
        <use xlink:href="#g"/>
      </mask>
      <path fill="#FEFEFE" d="M149.158 17.092h2.193v-3.784h-1.86c-1.77 0-2.573.67-2.573 1.77 0 1.352.87 2.014 2.24 2.014zm2.193 5.627v-4.03h-2.302l-1.542 3.084-.73.945h-2.286V21.05h1.013l1.464-2.813c-1.66-.59-2.36-1.697-2.36-3.205 0-2.15 1.43-3.57 4.64-3.57h5.573v1.843h-1.056v7.745h1.056v1.666h-3.47z" mask="url(#h)"/>
    </g>
    <path fill="#FEFEFE" d="M113.72 21.11c2.104 0 3.854-1.71 3.854-4.097 0-2.365-1.75-4.052-3.853-4.052-2.125 0-3.852 1.688-3.852 4.053 0 2.386 1.727 4.097 3.853 4.097m0-10.04c3.345 0 6.046 2.498 6.046 5.943 0 3.466-2.7 5.987-6.045 5.987-3.342 0-6.043-2.52-6.043-5.987 0-3.445 2.7-5.943 6.044-5.943M88.504 21.11c2.104 0 3.854-1.71 3.854-4.097 0-2.365-1.75-4.052-3.854-4.052-2.126 0-3.852 1.688-3.852 4.053 0 2.386 1.726 4.097 3.852 4.097m0-10.04c3.344 0 6.045 2.498 6.045 5.943 0 3.466-2.702 5.987-6.046 5.987-3.342 0-6.044-2.52-6.044-5.987 0-3.445 2.702-5.943 6.044-5.943M105.514 21.053v-9.59h-8.542v1.845h1.014c-.232 5.474-.476 7.516-3.058 7.516v1.962c.11.01.45 0 .556 0 3.268 0 4.4-2.497 4.605-9.454h2.99v7.72h-1.045v1.667h4.522v-1.667h-1.043zM64.202 12.96c1.813 0 3.36 1.255 3.754 3.114H60.45c.39-1.86 1.92-3.113 3.752-3.113zm2.986 6.68c-.712.915-1.79 1.47-2.986 1.47-1.865 0-3.422-1.318-3.776-3.253h9.67c.463-3.46-1.88-6.787-5.894-6.787-3.342 0-5.976 2.498-5.976 5.943 0 3.466 2.634 5.987 5.976 5.987 2.417 0 4.492-1.32 5.46-3.36h-2.474zM52.052 11.465h-.018v1.67h1.037v2.92h-5.158v-4.59H44.45V13.137h1.05v7.918h-1.05v1.666h4.525v-1.667h-1.063v-3.24h5.16v4.906h3.477v-1.67h-1.065v-7.915h1.064v-1.67H52.05zM141.84 21.045v-9.58h-2.237l-5.67 7.585v-5.915h1.054v-1.67h-4.516v1.67h1.05v9.584h1.773l.022-.047 6.088-8.08v6.452h-1.017v1.67l4.516.004v-1.676h-1.063z"/>
  </g>
</svg>
