<?xml version="1.0" encoding="utf-8"?>
<!-- Generator: Adobe Illustrator 22.1.0, SVG Export Plug-In . SVG Version: 6.00 Build 0)  -->
<svg version="1.1" id="Layer_1" xmlns="http://www.w3.org/2000/svg" xmlns:xlink="http://www.w3.org/1999/xlink" x="0px" y="0px"
	 viewBox="0 0 1258.2 2174.7" style="enable-background:new 0 0 1258.2 2174.7;" xml:space="preserve">
<style type="text/css">
	.st0{fill:#EB722E;}
</style>
<path class="st0" d="M629.9,1122.4c310-0.1,561.1-251.5,561-561.4c-0.1-310-251.5-561.1-561.4-561S68.4,251.5,68.5,561.4
	C68.9,871.2,320.1,1122.2,629.9,1122.4 M629.9,329c128.4,0,232.5,104.1,232.5,232.5S758.3,793.9,629.9,793.9
	S397.4,689.8,397.4,561.4C397.6,433.1,501.6,329.1,629.9,329L629.9,329z M856.8,1580.3c115.5-26.2,225.7-71.9,326-135
	c76.4-49.3,98.4-151.1,49.1-227.5c-48.5-75.2-148.3-97.9-224.5-51c-231.1,144.5-524.5,144.5-755.6,0c-76.7-48.1-178-25.1-226.3,51.5
	c-48.5,76.7-25.7,178.3,51.1,226.8c0.1,0,0.2,0.1,0.2,0.1c100.2,63,210.4,108.7,325.8,135L88.8,1894c-62.5,66-59.6,170.2,6.5,232.7
	c63.5,60,162.7,60,226.2,0l308.2-308.4l308.4,308.4c64.2,64.1,168.1,64.1,232.3,0c64.1-64.2,64.1-168.1,0-232.3L856.8,1580.3z"/>
</svg>
