<svg xmlns="http://www.w3.org/2000/svg" xmlns:xlink="http://www.w3.org/1999/xlink" version="1.1" width="256" height="256" viewBox="0 0 256 256" xml:space="preserve">

<defs>
</defs>
<g style="stroke: none; stroke-width: 0; stroke-dasharray: none; stroke-linecap: butt; stroke-linejoin: miter; stroke-miterlimit: 10; fill: none; fill-rule: nonzero; opacity: 1;" transform="translate(1.4065934065934016 1.4065934065934016) scale(2.81 2.81)" >
	<path d="M 83.924 7.756 L 4.202 38.496 c -5.442 2.183 -5.409 5.219 -0.992 6.571 l 20.455 6.385 l 7.035 23.153 c 0.925 2.553 0.469 3.566 3.151 3.566 c 2.069 0 2.983 -0.946 4.138 -2.069 l 9.941 -9.666 l 20.681 15.28 c 3.806 2.1 6.553 1.012 7.501 -3.533 l 13.577 -63.978 C 91.079 8.631 87.565 6.103 83.924 7.756 z" style="stroke: none; stroke-width: 1; stroke-dasharray: none; stroke-linecap: butt; stroke-linejoin: miter; stroke-miterlimit: 10; fill: rgb(33,151,201); fill-rule: nonzero; opacity: 1;" transform=" matrix(1 0 0 1 0 0) " stroke-linecap="round" />
	<path d="M 33.942 72.016 l -6.747 -22.204 L 79.13 19.002 L 40.751 56.789 L 33.942 72.016 z" style="stroke: none; stroke-width: 1; stroke-dasharray: none; stroke-linecap: butt; stroke-linejoin: miter; stroke-miterlimit: 10; fill: rgb(255,255,255); fill-rule: nonzero; opacity: 1;" transform=" matrix(1 0 0 1 0 0) " stroke-linecap="round" />
</g>
</svg>