<svg xmlns="http://www.w3.org/2000/svg" width="24" height="24" viewBox="0 0 24 24"><path fill="#fff" d="M4.543 5.126l.514.514L2.95 7.746l1.642 1.64 2.116-2.115.48.482L5.074 9.87l1.62 1.618 4.812-4.812L5.645.85.852 5.647l1.587 1.586 2.106-2.107zm12.78 7.368l-4.81 4.813 1.618 1.62 2.117-2.117.48.48-2.115 2.117 1.64 1.64 2.106-2.105.515.514-2.105 2.106 1.585 1.585 4.796-4.796-5.825-5.857zm5.043-6.156c.586-.587.59-1.534.01-2.116L19.74 1.59a1.496 1.496 0 0 0-2.114.008L16 3.225l4.74 4.74 1.627-1.627zM2.55 19.456l1.966 1.967 3.963-1.408-4.523-4.523-1.408 3.963zm12.937-15.75L4.323 14.873 9.1 19.65 20.264 8.484l-4.777-4.777zM6.493 14.863l8.986-8.986.523.524-8.986 8.987-.523-.524zM7.54 15.91l8.985-8.986.524.524-8.987 8.985-.523-.523zm1.047 1.046l8.986-8.986.523.524L9.11 17.48l-.523-.524zm-7.12 5.552l2.298-.838-1.462-1.462-.838 2.3z"/></svg>